<svg width="17" height="13" viewBox="0 0 17 13" fill="none" xmlns="http://www.w3.org/2000/svg">
<path d="M1.66667 12.0769C1.20833 12.0769 0.816111 11.9292 0.49 11.6338C0.163889 11.3384 0.000555556 10.9829 0 10.5673V1.50961C0 1.09447 0.163333 0.739206 0.49 0.443825C0.816667 0.148445 1.20889 0.000503204 1.66667 0H15C15.4583 0 15.8508 0.147942 16.1775 0.443825C16.5042 0.739709 16.6672 1.09497 16.6667 1.50961V10.5673C16.6667 10.9824 16.5036 11.3379 16.1775 11.6338C15.8514 11.9297 15.4589 12.0774 15 12.0769H1.66667ZM8.33333 6.79325L15 3.01922V1.50961L8.33333 5.28364L1.66667 1.50961V3.01922L8.33333 6.79325Z" fill="white"/>
</svg>
