<svg width="17" height="16" viewBox="0 0 17 16" fill="none" xmlns="http://www.w3.org/2000/svg">
<path fill-rule="evenodd" clip-rule="evenodd" d="M12.2398 15.0715C11.0398 15.0315 7.63895 14.6058 4.07728 11.3805C0.516452 8.1545 0.047285 5.07489 0.002285 3.98722C-0.0643817 2.32966 1.33729 0.719665 2.95645 0.0909118C3.15143 0.0146515 3.36495 -0.0143831 3.57606 0.00665708C3.78717 0.0276973 3.98861 0.0980893 4.16062 0.210926C5.49395 1.09103 6.41395 2.42251 7.20395 3.46942C7.37777 3.69943 7.45209 3.97933 7.41275 4.25577C7.37341 4.53222 7.22315 4.7859 6.99062 4.96846L5.36479 6.06218C5.28624 6.11355 5.23095 6.18901 5.20918 6.27452C5.18742 6.36004 5.20066 6.4498 5.24645 6.52714C5.61478 7.13325 6.26978 8.03599 7.01978 8.71532C7.76978 9.39464 8.81395 10.0272 9.52979 10.3985C9.61954 10.4442 9.72518 10.4569 9.825 10.4342C9.92482 10.4114 10.0112 10.3549 10.0665 10.2763L11.1248 8.81722C11.3194 8.58311 11.6064 8.42628 11.9258 8.37957C12.2451 8.33286 12.5721 8.39989 12.8381 8.56662C14.0106 9.3018 15.379 10.1208 16.3806 11.2824C16.5153 11.4393 16.601 11.6262 16.6287 11.8233C16.6564 12.0205 16.6251 12.2208 16.5381 12.4033C15.8406 13.8774 14.0756 15.1327 12.2398 15.0715Z" fill="white"/>
</svg>
