<svg width="38" height="38" viewBox="0 0 38 38" fill="none" xmlns="http://www.w3.org/2000/svg">
<path d="M11.875 3.16663C12.7148 3.16663 13.5203 3.50026 14.1142 4.09412C14.708 4.68799 15.0417 5.49344 15.0417 6.33329C15.0417 7.17314 14.708 7.9786 14.1142 8.57246C13.5203 9.16633 12.7148 9.49996 11.875 9.49996C11.0351 9.49996 10.2297 9.16633 9.63582 8.57246C9.04196 7.9786 8.70833 7.17314 8.70833 6.33329C8.70833 5.49344 9.04196 4.68799 9.63582 4.09412C10.2297 3.50026 11.0351 3.16663 11.875 3.16663ZM9.49999 11.0833H14.25C15.0898 11.0833 15.8953 11.4169 16.4892 12.0108C17.083 12.6047 17.4167 13.4101 17.4167 14.25V22.9583H15.0417V34.8333H8.70833V22.9583H6.33333V14.25C6.33333 13.4101 6.66696 12.6047 7.26082 12.0108C7.85469 11.4169 8.66014 11.0833 9.49999 11.0833ZM26.125 3.16663C26.9648 3.16663 27.7703 3.50026 28.3642 4.09412C28.958 4.68799 29.2917 5.49344 29.2917 6.33329C29.2917 7.17314 28.958 7.9786 28.3642 8.57246C27.7703 9.16633 26.9648 9.49996 26.125 9.49996C25.2851 9.49996 24.4797 9.16633 23.8858 8.57246C23.292 7.9786 22.9583 7.17314 22.9583 6.33329C22.9583 5.49344 23.292 4.68799 23.8858 4.09412C24.4797 3.50026 25.2851 3.16663 26.125 3.16663ZM23.75 34.8333V25.3333H19L23.1008 13.3158C23.4967 12.0175 24.7 11.0833 26.125 11.0833C27.55 11.0833 28.7533 12.0175 29.1492 13.3158L33.25 25.3333H28.5V34.8333H23.75Z" fill="#B58740"/>
</svg>
