<svg width="36" height="36" viewBox="0 0 36 36" fill="none" xmlns="http://www.w3.org/2000/svg">
<path d="M30.65 27.7309H33.569V30.6499H1.45953V27.7309H4.37858V5.83806C4.37858 5.45097 4.53235 5.07974 4.80606 4.80602C5.07977 4.53231 5.45101 4.37854 5.8381 4.37854H20.4333C20.8204 4.37854 21.1916 4.53231 21.4653 4.80602C21.7391 5.07974 21.8928 5.45097 21.8928 5.83806V27.7309H24.8119V13.1357H29.1904C29.5775 13.1357 29.9488 13.2894 30.2225 13.5631C30.4962 13.8369 30.65 14.2081 30.65 14.5952V27.7309ZM10.2167 16.0547V18.9737H16.0547V16.0547H10.2167ZM10.2167 10.2166V13.1357H16.0547V10.2166H10.2167Z" fill="#B58740"/>
</svg>
