<svg width="36" height="36" viewBox="0 0 36 36" fill="none" xmlns="http://www.w3.org/2000/svg">
<path d="M26.2714 8.75716C25.4687 8.75716 24.7817 8.47158 24.2106 7.90042C23.6394 7.32926 23.3533 6.64183 23.3524 5.83812C23.3514 5.03441 23.6374 4.34746 24.2106 3.77728C24.7837 3.20709 25.4706 2.92102 26.2714 2.91908C27.0722 2.91713 27.7596 3.2032 28.3337 3.77728C28.9078 4.35135 29.1934 5.0383 29.1904 5.83812C29.1875 6.63794 28.9019 7.32537 28.3337 7.90042C27.7655 8.47547 27.078 8.76105 26.2714 8.75716ZM24.8119 32.1095V20.4333C24.8119 19.4603 24.5623 18.5846 24.0631 17.8062C23.564 17.0278 22.9257 16.4196 22.1483 15.9818L23.4253 12.2235C23.6199 11.6154 23.979 11.1289 24.5025 10.764C25.0259 10.3991 25.6156 10.2167 26.2714 10.2167C26.9272 10.2167 27.5173 10.3991 28.0418 10.764C28.5662 11.1289 28.9248 11.6154 29.1175 12.2235L32.8392 23.3524H29.1904V32.1095H24.8119ZM18.244 16.7845C17.6359 16.7845 17.1192 16.5719 16.694 16.1467C16.2688 15.7215 16.0557 15.2043 16.0548 14.5952C16.0538 13.9861 16.2669 13.4695 16.694 13.0452C17.1212 12.621 17.6378 12.4079 18.244 12.406C18.8502 12.404 19.3674 12.6171 19.7955 13.0452C20.2236 13.4734 20.4362 13.99 20.4333 14.5952C20.4304 15.2005 20.2178 15.7176 19.7955 16.1467C19.3732 16.5758 18.8561 16.7884 18.244 16.7845ZM8.02739 8.75716C7.22465 8.75716 6.53771 8.47158 5.96655 7.90042C5.39539 7.32926 5.10932 6.64183 5.10835 5.83812C5.10738 5.03441 5.39344 4.34746 5.96655 3.77728C6.53965 3.20709 7.2266 2.92102 8.02739 2.91908C8.82818 2.91713 9.51561 3.2032 10.0897 3.77728C10.6638 4.35135 10.9494 5.0383 10.9464 5.83812C10.9435 6.63794 10.6579 7.32537 10.0897 7.90042C9.52145 8.47547 8.83402 8.76105 8.02739 8.75716ZM5.10835 32.1095V21.8928H2.91907V13.1357C2.91907 12.333 3.20513 11.646 3.77727 11.0749C4.3494 10.5037 5.03635 10.2177 5.83811 10.2167H10.2167C11.0194 10.2167 11.7068 10.5027 12.279 11.0749C12.8511 11.647 13.1367 12.334 13.1357 13.1357V21.8928H10.9464V32.1095H5.10835ZM16.0548 32.1095V26.2714H14.5952V20.4333C14.5952 19.8252 14.8083 19.3085 15.2345 18.8833C15.6607 18.4581 16.1774 18.245 16.7845 18.244H19.7036C20.3117 18.244 20.8288 18.4571 21.255 18.8833C21.6812 19.3095 21.8938 19.8262 21.8928 20.4333V26.2714H20.4333V32.1095H16.0548Z" fill="#B58740"/>
</svg>
